<svg width="123" height="112" viewBox="0 0 123 112" fill="none" xmlns="http://www.w3.org/2000/svg">
<g clip-path="url(#clip0_1230_20)">
<path fill-rule="evenodd" clip-rule="evenodd" d="M23.03 5.80017C33.03 5.80017 41.54 12.1802 44.73 21.0802C50.31 17.9502 56.75 16.1702 63.6 16.1702C84.95 16.1702 102.27 33.4902 102.27 54.8402C102.27 56.1002 102.21 57.3502 102.09 58.5902C112.8 60.5702 120.91 69.9602 120.91 81.2402C120.91 93.9602 110.6 104.27 97.88 104.27C88.69 104.27 80.76 98.8902 77.06 91.1102C72.87 92.6702 68.34 93.5202 63.6 93.5202C42.25 93.5202 24.93 76.2002 24.93 54.8502C24.93 53.8202 24.97 52.8002 25.05 51.7902C24.39 51.8502 23.71 51.8802 23.03 51.8802C10.31 51.8602 0 41.5502 0 28.8302C0 16.1102 10.31 5.80017 23.03 5.80017ZM67.17 106.03C68.41 105.81 69.6 106.65 69.81 107.89C70.03 109.13 69.19 110.32 67.95 110.53C65.5 110.97 63.02 111.22 60.54 111.3C48.63 111.69 37.32 107.91 28.44 100.97C19.54 94.0202 13.08 83.9002 10.91 71.6302C10.67 70.2802 10.48 68.9002 10.35 67.4802L7.98 67.7802L3.24 68.3902L11.63 56.6202L21.9 65.9902L17.25 66.5902L14.87 66.9002C14.99 68.2302 15.17 69.5402 15.4 70.8402C17.37 81.9502 23.2 91.1002 31.24 97.3802C39.29 103.67 49.56 107.1 60.39 106.75C62.6 106.67 64.87 106.44 67.17 106.03ZM117.34 46.0602L105.23 39.2302L109.63 37.6002L111.72 36.8302C109.37 25.8502 102.95 17.3002 94.4 11.7802C85.06 5.75016 73.19 3.30017 61.29 5.19017C60.05 5.39017 58.88 4.54017 58.68 3.30017C58.48 2.06017 59.33 0.890165 60.57 0.690165C73.6 -1.37983 86.61 1.31017 96.87 7.94017C106.24 13.9902 113.31 23.3002 116.05 35.2402L118.41 34.3702L122.89 32.7102L117.34 46.0602ZM86.36 77.2402L99.22 68.1202L112.14 77.2402H86.36ZM87.14 92.1402V89.1502H88.02L88.86 88.4902V80.5502H87.14V78.6502H111.28V80.5502H109.56V88.4902L110.4 89.1502H111.3V92.1402H87.14ZM92.89 89.1502H93.86L94.7 88.4902V80.5502H92.04V88.4902L92.89 89.1502ZM98.73 89.1502H99.7L100.54 88.4902V80.5502H97.88V88.4902L98.73 89.1502ZM104.57 89.1502H105.54L106.38 88.4902V80.5502H103.72V88.4902L104.57 89.1502ZM9.96 23.7002L22.82 14.5802L35.74 23.7002H9.96ZM10.74 38.6102V35.6202H11.62L12.46 34.9602V27.0202H10.74V25.1202H34.88V27.0202H33.16V34.9602L34 35.6202H34.9V38.6102H10.74ZM16.49 35.6202H17.46L18.3 34.9602V27.0202H15.64V34.9602L16.49 35.6202ZM22.33 35.6202H23.3L24.14 34.9602V27.0202H21.48V34.9602L22.33 35.6202ZM28.17 35.6202H29.14L29.98 34.9602V27.0202H27.32V34.9602L28.17 35.6202ZM97.87 61.5802C108.72 61.5802 117.52 70.3802 117.52 81.2302C117.52 92.0802 108.72 100.88 97.87 100.88C87.02 100.88 78.22 92.0802 78.22 81.2302C78.22 70.3802 87.02 61.5802 97.87 61.5802ZM74.22 20.2602C87.2 24.5702 96.93 35.9902 98.81 49.9002L97.58 49.7702C97.36 50.7102 97.16 50.7302 97.16 51.8702C97.16 52.8702 98.42 53.5402 98.42 55.6502C98.42 56.2102 97.09 57.3502 97.03 57.5402L95.06 55.2302V58.1702L94.76 58.1602L94.23 52.7402L93.13 53.0902L91.82 49.0602L87.51 53.5602L87.46 56.8602L86.05 57.8102L84.55 49.3502L83.66 50.0002L81.63 47.2702L78.6 47.3602L77.44 46.0302L76.25 46.3602L73.91 43.6802L73.46 43.9902L74.91 47.6902H76.59V46.8502H77.43C78.04 48.5202 78.69 47.5302 78.69 48.5302C78.69 52.0202 74.38 54.5902 71.55 55.2502C71.7 55.8802 71.64 56.5102 72.39 56.5102C73.97 56.5102 73.19 56.2302 74.91 56.0902C74.83 59.6602 70.82 63.9202 69.11 66.5702L69.88 72.0402C70.08 73.2302 67.41 74.4802 66.51 75.8202L66.95 77.9202L65.72 78.4202C65.5 80.5702 63.41 82.9602 61.07 82.9602H58.55C58.55 80.0102 56.45 75.8102 56.45 73.7202C56.45 71.9502 57.29 71.7102 57.29 69.5202C57.29 67.5002 55.19 64.5902 55.19 64.0602V60.7002H53.5C53.25 59.7602 53.4 59.4402 52.24 59.4402H51.82C49.99 59.4402 50.3 60.2802 48.46 60.2802H46.78C45.27 60.2802 42.58 55.4202 42.58 54.8202V49.7802C42.58 47.6102 44.57 45.2402 45.94 44.3202V42.2202L47.83 40.3002L48.88 40.1202C51.13 40.1202 50.87 38.8602 52.24 38.8602H56.02V41.8002L60.17 43.5702L60.56 41.7802C62.44 42.2202 62.93 43.0602 65.25 43.0602H66.09C67.68 43.0602 67.77 40.9502 67.77 39.2802L64.41 39.6102L62.95 36.4202L61.5 36.8102C61.76 37.9502 61.9 37.4802 61.9 38.4402C61.9 39.0102 61.43 39.0702 61.06 39.2802L59.61 35.5902L56.48 33.3602L56.07 33.7702L58.73 36.5702C58.38 37.5702 58.33 40.4802 56.87 38.4502L58.24 37.7902L54.82 34.2002L52.77 35.0002L50.75 36.9402C50.54 38.5002 50.11 39.2902 48.48 39.2902C47.39 39.2902 48.05 39.0102 46.38 38.8702V34.6702H50.16L48.94 31.8702L48.49 32.1502V31.3002L54.62 28.4702C54.5 27.5902 54.36 28.0602 54.36 27.1002C54.36 27.0402 54.77 26.2702 54.78 26.2602L56.37 27.2402L55.99 25.4302L53.54 25.9302L53.09 23.7302C55.03 22.7102 59.3 19.1102 60.66 19.1102H61.92C63.25 19.1102 66.8 20.4202 67.38 21.2102L64.01 20.8702L66.51 22.9302L66.75 22.0502L68.62 21.5402L68.64 20.3702H69.48V21.6302L74.22 20.2602ZM32.33 74.8202C30.02 71.3202 28.33 67.4302 27.35 63.3502L34.16 66.6302L34.19 68.6602C34.19 69.4102 32.92 70.9902 32.51 71.6002L32.33 74.8202ZM23.03 9.18017C33.88 9.18017 42.68 17.9802 42.68 28.8302C42.68 39.6802 33.88 48.4802 23.03 48.4802C12.18 48.4802 3.38 39.6802 3.38 28.8302C3.38 17.9802 12.18 9.18017 23.03 9.18017Z" fill="#FFC40C"/>
</g>
<defs>
<clipPath id="clip0_1230_20">
<rect width="122.88" height="111.33" fill="white"/>
</clipPath>
</defs>
</svg>
