<svg width="121" height="123" viewBox="0 0 121 123" fill="none" xmlns="http://www.w3.org/2000/svg">
<g clip-path="url(#clip0_1229_15)">
<path d="M72.5996 17.95C72.2996 17.55 72.1496 17.05 72.1596 16.55C71.8196 16.82 71.4596 17.07 71.0796 17.31C68.4096 18.99 64.7596 20.04 60.7596 20.04C56.7596 20.04 53.0996 19 50.4396 17.31C49.8596 16.95 49.3296 16.55 48.8496 16.13V19.23C48.8496 22.86 51.8196 25.21 55.6296 26.27C57.2296 26.72 58.9696 26.94 60.7096 26.94C62.4496 26.94 64.1896 26.72 65.7896 26.27C69.6196 25.2 72.6196 22.85 72.6196 19.26V17.95H72.5996ZM60.8596 31.62C64.8596 31.62 68.5196 32.66 71.1796 34.35C74.0596 36.17 75.8396 38.74 75.8396 41.64C75.8396 42.01 75.8096 42.37 75.7596 42.72V50.88C75.7596 56.1 71.7796 59.41 66.6996 60.82C64.8396 61.34 62.8296 61.6 60.8096 61.6C58.7996 61.6 56.7796 61.34 54.9196 60.83C49.8596 59.42 45.8996 56.11 45.8996 50.86V42.64C45.8996 42.55 45.9096 42.47 45.9196 42.39C45.8896 42.15 45.8796 41.9 45.8796 41.65C45.8796 38.75 47.6596 36.17 50.5396 34.36C53.2096 32.66 56.8596 31.62 60.8596 31.62ZM72.7096 47.82C72.2496 48.22 71.7396 48.59 71.1896 48.94C68.5196 50.62 64.8696 51.67 60.8696 51.67C56.8696 51.67 53.2096 50.63 50.5496 48.94C49.9696 48.58 49.4396 48.18 48.9596 47.76V50.86C48.9596 54.49 51.9296 56.84 55.7396 57.9C57.3396 58.35 59.0796 58.57 60.8196 58.57C62.5596 58.57 64.2996 58.35 65.8996 57.9C69.7296 56.83 72.7296 54.48 72.7296 50.89V47.82H72.7096ZM69.5696 36.92C67.3696 35.53 64.2896 34.67 60.8696 34.67C57.4396 34.67 54.3696 35.53 52.1696 36.92C50.1796 38.18 48.9396 39.85 48.9396 41.64C48.9396 43.43 50.1696 45.1 52.1696 46.36C54.3696 47.75 57.4496 48.61 60.8696 48.61C64.2996 48.61 67.3696 47.75 69.5696 46.36C71.2596 45.29 72.3996 43.93 72.7096 42.44V42.16C72.7096 41.99 72.7396 41.82 72.7896 41.66V41.63C72.7896 39.85 71.5596 38.18 69.5696 36.92ZM30.0296 16.71C33.2296 16.71 36.1996 17.37 38.6296 18.5C38.7496 18.38 38.8896 18.28 39.0396 18.19L45.3196 14.56C45.4696 14.47 45.6296 14.41 45.7896 14.36V11.01C45.7896 10.92 45.7996 10.84 45.8096 10.76C45.7796 10.52 45.7696 10.27 45.7696 10.02C45.7696 7.12 47.5496 4.54 50.4296 2.73C53.0996 1.04 56.7496 0 60.7496 0C64.7496 0 68.4096 1.04 71.0696 2.73C73.9496 4.55 75.7296 7.12 75.7296 10.02C75.7296 10.39 75.6996 10.75 75.6496 11.1V14.76L82.4896 18.51C82.6296 18.59 82.7596 18.68 82.8796 18.78C85.5296 17.15 89.1196 16.15 93.0496 16.15C97.0496 16.15 100.71 17.19 103.37 18.88C106.25 20.7 108.03 23.27 108.03 26.17C108.03 26.54 108 26.9 107.95 27.25V32.51C108.11 32.55 108.27 32.62 108.43 32.7L119.32 38.67C119.71 38.86 120.05 39.16 120.28 39.56C120.48 39.91 120.58 40.3 120.58 40.68H120.59V85.87C120.59 86.72 120.11 87.47 119.41 87.85L61.9796 122.55C61.6396 122.76 61.2596 122.86 60.8896 122.87C60.8496 122.87 60.8096 122.87 60.7696 122.87C60.2096 122.87 59.6896 122.66 59.2996 122.32L1.09962 88.27C0.369621 87.84 -0.0303791 87.06 -0.000379087 86.26L0.689621 41.74C0.669621 41.33 0.759621 40.91 0.969621 40.52C1.19962 40.1 1.54962 39.79 1.94962 39.6L14.4196 32.4C14.6196 32.28 14.8396 32.2 15.0496 32.15V27.72C15.0496 27.63 15.0596 27.55 15.0696 27.47C15.0396 27.23 15.0296 26.98 15.0296 26.73C15.0296 23.83 16.8096 21.25 19.6896 19.44C22.3696 17.75 26.0296 16.71 30.0296 16.71ZM42.6396 21.27C44.1396 22.83 45.0096 24.7 45.0096 26.73C45.0096 27.1 44.9796 27.46 44.9296 27.81V35.97C44.9296 41.19 40.9496 44.5 35.8696 45.91C34.0096 46.43 31.9996 46.69 29.9796 46.69C27.9696 46.69 25.9496 46.43 24.0896 45.92C19.4196 44.62 15.6996 41.71 15.1396 37.15L7.44962 41.59L60.7296 71.44L113.78 40.75L107.73 37.43C106.84 41.49 103.28 44.14 98.8796 45.36C97.0196 45.88 95.0096 46.14 92.9896 46.14C90.9696 46.14 88.9596 45.88 87.0996 45.37C82.0396 43.96 78.0796 40.65 78.0796 35.4V27.18C78.0796 27.09 78.0896 27.01 78.0996 26.93C78.0696 26.69 78.0596 26.44 78.0596 26.19C78.0596 24.67 78.5496 23.23 79.4296 21.95L75.6196 19.87C75.3296 24.75 71.4696 27.87 66.5696 29.23C64.7096 29.75 62.6996 30.01 60.6796 30.01C58.6596 30.01 56.6496 29.75 54.7896 29.24C49.7896 27.85 45.8796 24.61 45.7796 19.48L42.6396 21.27ZM41.8796 32.9C41.4196 33.3 40.9096 33.67 40.3596 34.02C37.6896 35.7 34.0396 36.75 30.0396 36.75C26.0396 36.75 22.3796 35.71 19.7196 34.02C19.1396 33.66 18.6096 33.26 18.1296 32.84V35.94C18.1296 39.57 21.0996 41.92 24.9096 42.98C26.5096 43.43 28.2496 43.65 29.9896 43.65C31.7296 43.65 33.4696 43.43 35.0696 42.98C38.8996 41.91 41.8996 39.56 41.8996 35.97V32.9H41.8796ZM38.7296 22.01C36.5296 20.62 33.4496 19.76 30.0296 19.76C26.5996 19.76 23.5296 20.62 21.3296 22.01C19.3396 23.27 18.0996 24.94 18.0996 26.73C18.0996 28.52 19.3296 30.19 21.3296 31.45C23.5296 32.84 26.6096 33.7 30.0296 33.7C33.4596 33.7 36.5296 32.84 38.7296 31.45C40.4196 30.38 41.5596 29.02 41.8696 27.53V27.25C41.8696 27.08 41.8996 26.91 41.9496 26.75V26.72C41.9596 24.94 40.7296 23.27 38.7296 22.01ZM104.89 32.34C104.43 32.74 103.92 33.11 103.37 33.46C100.7 35.14 97.0496 36.19 93.0496 36.19C89.0496 36.19 85.3896 35.15 82.7296 33.46C82.1496 33.1 81.6196 32.7 81.1396 32.28V35.38C81.1396 39.01 84.1096 41.36 87.9196 42.42C89.5196 42.87 91.2596 43.09 92.9996 43.09C94.7396 43.09 96.4796 42.87 98.0796 42.42C101.91 41.35 104.91 39 104.91 35.41V32.34H104.89ZM101.75 21.45C99.5496 20.06 96.4696 19.2 93.0496 19.2C89.6196 19.2 86.5496 20.06 84.3496 21.45C82.3596 22.71 81.1196 24.38 81.1196 26.17C81.1196 27.96 82.3496 29.63 84.3496 30.89C86.5496 32.28 89.6296 33.14 93.0496 33.14C96.4796 33.14 99.5496 32.28 101.75 30.89C103.44 29.82 104.58 28.46 104.89 26.97V26.7C104.89 26.53 104.92 26.36 104.97 26.2V26.17C104.97 24.38 103.74 22.7 101.75 21.45ZM72.5996 10.83V10.55C72.5996 10.38 72.6296 10.21 72.6796 10.05V10.02C72.6796 8.23 71.4496 6.56 69.4496 5.3C67.2496 3.91 64.1696 3.05 60.7496 3.05C57.3196 3.05 54.2496 3.91 52.0496 5.3C50.0596 6.56 48.8196 8.23 48.8196 10.02C48.8196 11.81 50.0496 13.48 52.0496 14.74C54.2496 16.13 57.3296 16.99 60.7496 16.99C64.1796 16.99 67.2496 16.13 69.4496 14.74C71.1496 13.68 72.2896 12.31 72.5996 10.83ZM62.9896 75.29V116.71L116.09 84.62V44.57L62.9896 75.29ZM58.5096 116.7V75.31L5.09962 45.4L4.48962 85.07L58.5096 116.7Z" fill="#FFC40C"/>
</g>
<defs>
<clipPath id="clip0_1229_15">
<rect width="120.58" height="122.88" fill="white"/>
</clipPath>
</defs>
</svg>
