<svg width="800" height="800" viewBox="0 0 800 800" fill="none" xmlns="http://www.w3.org/2000/svg">
<g clip-path="url(#clip0_151_16)">
<path d="M400 0C179.1 0 0 179.1 0 400C0 620.9 179.1 800 400 800C620.9 800 800 620.9 800 400C800 179.1 620.9 0 400 0ZM535.55 535.55C515.975 555.125 483.45 554.15 463.875 534.575L364.7 435.4C360.063 430.813 356.4 425.25 353.863 419.088C351.313 412.988 350 406.538 350 400V200C350 172.363 372.363 150 400 150C427.637 150 450 172.363 450 200V379.3L535.738 465.037C555.325 484.625 555.075 516.013 535.55 535.55Z" fill="#FFC40C"/>
</g>
<defs>
<clipPath id="clip0_151_16">
<rect width="800" height="800" fill="white"/>
</clipPath>
</defs>
</svg>
