<svg width="114" height="123" viewBox="0 0 114 123" fill="none" xmlns="http://www.w3.org/2000/svg">
<g clip-path="url(#clip0_112_5)">
<path d="M44.1313 102.06C42.9913 102.09 41.9913 101.25 41.8313 100.1C41.6613 98.9 42.4713 97.79 43.6513 97.56C42.3513 90.19 38.8013 86.13 35.0513 81.84C32.1313 78.5 29.1013 75.03 26.7113 69.92C24.3613 64.89 23.0713 59.69 23.1113 54.29C23.1613 48.89 24.5313 43.33 27.5113 37.58C27.5313 37.54 27.5513 37.51 27.5713 37.47C31.4813 30.85 36.9513 26.43 43.0413 23.95C48.1513 21.86 53.7013 21.15 59.1413 21.65C64.5613 22.15 69.8713 23.85 74.5113 26.59C80.4213 30.08 85.2613 35.26 87.9313 41.8C89.3713 45.34 90.3513 49.29 90.4713 53.62C90.5913 57.93 89.8513 62.58 87.8613 67.5C85.2013 74.09 81.6813 78.18 78.3913 82.01C75.3613 85.54 72.5413 88.82 70.9713 93.85C71.8613 94.06 72.5613 94.79 72.7013 95.75C72.8713 96.99 72.0013 98.14 70.7613 98.31L69.9913 98.42C69.8513 99.51 69.7613 100.68 69.7213 101.93L69.9713 101.89C71.2113 101.72 72.3613 102.59 72.5313 103.83C72.7013 105.07 71.8313 106.22 70.5913 106.39L69.8113 106.5C69.8213 106.65 69.8313 106.8 69.8413 106.95C69.9113 107.83 69.9213 108.68 69.8713 109.49L70.0013 109.47C71.2513 109.32 72.3813 110.21 72.5413 111.45C72.6913 112.7 71.8013 113.83 70.5613 113.99L68.8813 114.2C67.6813 117.31 65.5413 119.68 63.0113 121.14C61.2713 122.15 59.3413 122.73 57.4013 122.85C55.4313 122.97 53.4413 122.6 51.6213 121.72C49.5413 120.7 47.6813 119.01 46.3313 116.58C45.6813 116.25 45.2013 115.61 45.1013 114.83C45.0613 114.52 45.0913 114.22 45.1713 113.94C44.7813 112.78 44.4913 111.51 44.3013 110.11L44.2313 110.12C42.9913 110.29 41.8413 109.42 41.6713 108.18C41.5013 106.94 42.3713 105.79 43.6113 105.62L44.1513 105.54C44.1913 104.32 44.1813 103.16 44.1313 102.06ZM59.4213 65.9C59.4213 64.97 59.2013 64.25 58.7313 63.72C58.2713 63.19 57.4813 62.71 56.3313 62.23C55.2013 61.77 54.1313 61.29 53.1713 60.82C52.2113 60.34 51.3713 59.79 50.6713 59.16C49.9713 58.53 49.4413 57.81 49.0613 56.98C48.6813 56.16 48.5113 55.16 48.5113 53.98C48.5113 52.01 49.1813 50.39 50.5013 49.13C51.8213 47.86 53.5913 47.11 55.8013 46.9V44.26H58.5813V46.97C60.7113 47.28 62.3913 48.15 63.6113 49.59C64.8313 51.03 65.4513 52.85 65.4513 55.06H59.5313C59.5313 53.84 59.2913 52.92 58.8313 52.26C58.3713 51.61 57.7013 51.28 56.8413 51.28C56.0713 51.28 55.4713 51.52 55.0613 52C54.6313 52.48 54.4313 53.15 54.4313 53.99C54.4313 54.85 54.6713 55.53 55.1713 56.05C55.6713 56.56 56.4413 57.04 57.5213 57.51C58.6013 57.97 59.6313 58.45 60.5913 58.93C61.5513 59.43 62.3713 59.99 63.0813 60.61C63.7813 61.24 64.3313 61.98 64.7313 62.82C65.1213 63.66 65.3313 64.66 65.3313 65.84C65.3313 67.83 64.7013 69.46 63.4313 70.71C62.1613 71.96 60.4413 72.7 58.2713 72.91V75.38H55.4913V72.9C52.9513 72.63 51.0013 71.77 49.6413 70.29C48.2813 68.81 47.6013 66.88 47.6013 64.46H53.5013C53.5013 65.8 53.7913 66.79 54.3713 67.5C54.9513 68.19 55.7913 68.55 56.8713 68.55C57.6613 68.55 58.2813 68.31 58.7413 67.85C59.1913 67.39 59.4313 66.73 59.4313 65.91H59.4213V65.9ZM2.18126 58.86C1.01126 58.89 0.0412565 57.98 0.0012565 56.81C-0.0387435 55.64 0.881256 54.67 2.05126 54.63L10.7513 54.33C11.9213 54.29 12.8913 55.21 12.9313 56.38C12.9713 57.55 12.0513 58.52 10.8813 58.56L2.18126 58.86ZM110.681 50.25C111.841 50.13 112.881 50.98 113.001 52.14C113.121 53.3 112.271 54.34 111.111 54.46L102.451 55.37C101.291 55.49 100.251 54.64 100.131 53.48C100.011 52.32 100.861 51.28 102.021 51.16L110.681 50.25ZM94.9113 14.78C95.5613 13.81 96.8713 13.55 97.8413 14.2C98.8113 14.85 99.0713 16.16 98.4213 17.13L93.5813 24.37C92.9313 25.34 91.6213 25.6 90.6513 24.95C89.6813 24.3 89.4213 22.99 90.0713 22.02L94.9113 14.78ZM57.6313 2.05998C57.6613 0.889981 58.6313 -0.0300191 59.7913 -1.91157e-05C60.9513 0.0299809 61.8813 0.999981 61.8513 2.15998L61.6313 10.86C61.6013 12.03 60.6313 12.95 59.4713 12.92C58.3013 12.89 57.3813 11.92 57.4113 10.76L57.6313 2.05998ZM13.8813 15.53C13.0213 14.73 12.9813 13.39 13.7713 12.54C14.5713 11.68 15.9113 11.64 16.7613 12.43L23.1313 18.37C23.9913 19.17 24.0313 20.51 23.2413 21.36C22.4413 22.22 21.1013 22.26 20.2513 21.47L13.8813 15.53ZM47.8813 96.95L66.3713 94.32C67.9613 87.62 71.4213 83.59 75.1713 79.24C78.2513 75.66 81.5313 71.84 83.9313 65.9C85.6913 61.55 86.3413 57.47 86.2413 53.71C86.1413 49.96 85.2813 46.5 84.0013 43.37C81.7013 37.74 77.4913 33.26 72.3513 30.22C68.2413 27.79 63.5513 26.28 58.7613 25.85C53.9913 25.41 49.1213 26.04 44.6313 27.87C39.3713 30.02 34.6413 33.84 31.2413 39.59C28.6013 44.71 27.3813 49.61 27.3413 54.32C27.3013 59.06 28.4513 63.65 30.5413 68.12C32.6713 72.68 35.5113 75.92 38.2313 79.04C42.4713 83.9 46.4813 88.49 47.8813 96.95ZM65.6213 99.02L48.3513 101.47C48.4013 102.57 48.4213 103.72 48.4013 104.94L65.4513 102.52C65.4713 101.29 65.5213 100.12 65.6213 99.02ZM48.4913 109.52C48.6113 110.44 48.7913 111.28 49.0213 112.06L65.5713 110.02C65.6813 109.16 65.7013 108.25 65.6213 107.28V107.26L65.6113 107.09L48.4913 109.52ZM51.3713 116.36C52.0113 117.03 52.7213 117.55 53.4713 117.91C54.6213 118.47 55.8913 118.7 57.1413 118.63C58.4213 118.55 59.7113 118.16 60.8813 117.48C61.9813 116.84 62.9713 115.95 63.7613 114.83L51.3713 116.36Z" fill="#FFC40C"/>
</g>
<defs>
<clipPath id="clip0_112_5">
<rect width="113.01" height="122.88" fill="white"/>
</clipPath>
</defs>
</svg>
