<svg width="156" height="162" viewBox="0 0 156 162" fill="none" xmlns="http://www.w3.org/2000/svg">
<path d="M78 0C45.6934 0 19.5 27.2008 19.5 60.75C19.5 73.9606 23.6706 86.0828 30.6028 96.0103C30.7271 96.2483 30.7466 96.514 30.888 96.7418L69.888 157.492C71.6966 160.309 74.7435 162 78 162C81.2565 162 84.3034 160.309 86.112 157.492L125.112 96.7418C125.256 96.514 125.273 96.2483 125.397 96.0103C132.329 86.0828 136.5 73.9606 136.5 60.75C136.5 27.2008 110.307 0 78 0ZM78 81C67.2311 81 58.5 71.9331 58.5 60.75C58.5 49.5669 67.2311 40.5 78 40.5C88.7689 40.5 97.5 49.5669 97.5 60.75C97.5 71.9331 88.7689 81 78 81Z" fill="#FFC40C"/>
</svg>
