<svg width="123" height="93" viewBox="0 0 123 93" fill="none" xmlns="http://www.w3.org/2000/svg">
<g clip-path="url(#clip0_113_14)">
<path fill-rule="evenodd" clip-rule="evenodd" d="M15.91 0H37.99C46.49 0 53.44 6.95 53.44 15.45C53.44 47.24 61.57 82.16 22.6 92.13C4.94 96.64 0.34 77.2 19.12 75.86C30.57 75.04 32.81 67.64 33.16 56.46H15.45C6.95 56.45 0 49.5 0 41.01V15.91C0 7.16 7.16 0 15.91 0ZM84.65 0H106.73C115.23 0 122.18 6.95 122.18 15.45C122.18 47.24 130.31 82.16 91.34 92.13C73.69 96.64 69.09 77.2 87.86 75.86C99.31 75.04 101.55 67.64 101.9 56.46H84.18C75.68 56.46 68.73 49.51 68.73 41.01V15.91C68.74 7.16 75.9 0 84.65 0Z" fill="#FF3026"/>
</g>
<defs>
<clipPath id="clip0_113_14">
<rect width="122.88" height="92.81" fill="white"/>
</clipPath>
</defs>
</svg>
