<svg width="315" height="314" viewBox="0 0 315 314" fill="none" xmlns="http://www.w3.org/2000/svg">
<path d="M157.5 0C92.2605 0 39.375 52.7177 39.375 117.75C39.375 145.608 51.6895 170.105 65.3182 191.344L149.468 309.859C151.313 312.459 154.311 314 157.5 314C160.689 314 163.687 312.459 165.532 309.859L249.682 191.344C262.705 173.868 275.625 145.608 275.625 117.75C275.625 52.7177 222.739 0 157.5 0ZM236.678 191.344H236.629L157.5 299.281L78.371 191.344H78.3218C66.2927 174.02 49.2188 146.201 49.2188 117.75C49.2188 58.1391 97.6992 9.8125 157.5 9.8125C217.301 9.8125 265.781 58.1391 265.781 117.75C265.781 146.201 247.477 175.551 236.678 191.344Z" fill="#FE3026"/>
<path d="M157.5 68.6875C130.316 68.6875 108.281 90.6577 108.281 117.75C108.281 144.842 130.316 166.812 157.5 166.812C184.684 166.812 206.719 144.842 206.719 117.75C206.719 90.6577 184.684 68.6875 157.5 68.6875ZM157.5 157C135.755 157 118.125 139.426 118.125 117.75C118.125 96.0742 135.755 78.5 157.5 78.5C179.245 78.5 196.875 96.0742 196.875 117.75C196.875 139.426 179.245 157 157.5 157Z" fill="#FE3026"/>
<path d="M157.5 49.0625C119.444 49.0625 88.5938 79.8149 88.5938 117.75C88.5938 155.685 119.444 186.438 157.5 186.438C195.556 186.438 226.406 155.685 226.406 117.75C226.406 79.8149 195.556 49.0625 157.5 49.0625ZM157.5 176.625C124.883 176.625 98.4375 150.264 98.4375 117.75C98.4375 85.2363 124.883 58.875 157.5 58.875C190.117 58.875 216.562 85.2363 216.562 117.75C216.562 150.264 190.117 176.625 157.5 176.625Z" fill="#FE3026"/>
</svg>
