<svg width="151" height="151" viewBox="0 0 151 151" fill="none" xmlns="http://www.w3.org/2000/svg">
<g clip-path="url(#clip0_124_9)">
<path fill-rule="evenodd" clip-rule="evenodd" d="M0 75.5C0 117.195 33.8806 151 75.5 151C117.195 151 151 117.119 151 75.5C151 33.8051 117.119 0 75.5 0C33.8051 0 0 33.8806 0 75.5ZM18.875 75.5C18.875 44.2902 44.2241 18.875 75.5 18.875C106.71 18.875 132.125 44.2241 132.125 75.5C132.125 106.71 106.776 132.125 75.5 132.125C44.2902 132.125 18.875 106.776 18.875 75.5ZM66.0625 84.9375H113.25V66.0625H84.9375V37.75H66.0625V84.9375Z" fill="#FE3026"/>
</g>
<defs>
<clipPath id="clip0_124_9">
<rect width="151" height="151" fill="white"/>
</clipPath>
</defs>
</svg>
