<svg width="184" height="210" viewBox="0 0 184 210" fill="none" xmlns="http://www.w3.org/2000/svg">
<g clip-path="url(#clip0_122_4)">
<path fill-rule="evenodd" clip-rule="evenodd" d="M92.0016 84V105H110.402C110.402 93.3975 102.168 84 92.0016 84ZM92.0016 42V63C112.297 63 128.802 81.837 128.802 105H147.202C147.202 70.203 122.49 42 92.0016 42ZM92.0016 0V21C132.583 21 165.602 58.6845 165.602 105H184.002C184.002 47.0085 142.813 0 92.0016 0ZM134.8 191.456C134.699 191.781 134.69 191.834 134.8 191.456ZM129.878 163.57C123.484 159.643 117.016 155.169 110.328 152.05C97.4019 146.034 98.276 163.82 89.0484 169.584C83.05 173.333 74.586 166.54 69.3512 162.781C60.2064 156.208 52.1012 147.558 45.3668 137.551C41.9168 132.438 34.2992 122.82 35.2376 115.649C36.728 104.267 48.5224 103.696 45.146 89.7729C43.3428 82.3179 40.1136 74.9808 37.694 67.7988C34.4556 58.1703 33.1216 52.0058 23.6732 52.5308C16.8468 52.9088 12.3204 56.2398 8.12521 62.4873C-3.22759 79.3608 -1.5164 102.11 6.1104 120.622C16.9112 146.819 35.4216 171.517 55.1924 187.477C68.6428 198.334 86.362 208.192 102.646 209.862C114.569 211.09 131.249 203.732 135.518 188.959C135.223 189.988 134.938 190.983 134.8 191.456C134.901 191.088 135.122 190.345 135.518 188.959C135.95 187.468 136.162 186.721 136.263 186.385C136.134 186.826 135.84 187.857 135.527 188.928C139.28 175.908 139.74 169.629 129.878 163.57ZM136.263 186.385C136.336 186.133 136.336 186.112 136.263 186.385Z" fill="#FE3026"/>
</g>
<defs>
<clipPath id="clip0_122_4">
<rect width="184" height="210" fill="white"/>
</clipPath>
</defs>
</svg>
