<svg width="123" height="121" viewBox="0 0 123 121" fill="none" xmlns="http://www.w3.org/2000/svg">
<g clip-path="url(#clip0_111_17)">
<path fill-rule="evenodd" clip-rule="evenodd" d="M45.6496 96.56H77.9796V107.62L83.9996 120.75H81.4096L71.4796 110.94H66.9196L63.2796 120.75H59.7196L57.4296 110.94H53.2996L43.3296 120.75H39.6296L45.6396 107.62L45.6496 96.56ZM1.15964 86.47L32.2596 40.36V92.29H0.0996366C-0.190363 90.16 0.149637 87.98 1.15964 86.47ZM58.3096 1.73001C60.0296 -0.819985 63.0496 -0.509985 65.0296 2.42001C91.1696 41.19 83.5896 47.26 83.5896 92.3H39.7296C39.7296 47.08 32.0696 40.65 58.3096 1.73001ZM91.0596 41.01L121.25 85.78C122.5 87.62 123.04 90.08 122.84 92.29H91.0596V41.01Z" fill="#FFC40C"/>
</g>
<defs>
<clipPath id="clip0_111_17">
<rect width="122.88" height="120.75" fill="white"/>
</clipPath>
</defs>
</svg>
