<svg width="164" height="140" viewBox="0 0 164 140" fill="none" xmlns="http://www.w3.org/2000/svg">
<g clip-path="url(#clip0_119_4)">
<path d="M82 0C36.7155 0 0 31.3425 0 70C0 108.658 36.7155 140 82 140C127.285 140 164 108.658 164 70C164 31.3425 127.285 0 82 0ZM109.788 93.7213C105.775 97.1469 99.1073 96.9762 95.0944 93.5506L74.7635 76.195C73.8128 75.3922 73.062 74.4188 72.5418 73.3403C72.0191 72.2728 71.75 71.1441 71.75 70V35C71.75 30.1634 76.3343 26.25 82 26.25C87.6657 26.25 92.25 30.1634 92.25 35V66.3775L109.826 81.3816C113.842 84.8094 113.79 90.3022 109.788 93.7213Z" fill="#FFC40C"/>
</g>
<defs>
<clipPath id="clip0_119_4">
<rect width="164" height="140" fill="white"/>
</clipPath>
</defs>
</svg>
