<svg width="123" height="107" viewBox="0 0 123 107" fill="none" xmlns="http://www.w3.org/2000/svg">
<g clip-path="url(#clip0_109_8)">
<path fill-rule="evenodd" clip-rule="evenodd" d="M4.02 44.5999H31.38C33.59 44.5999 35.4 46.4099 35.4 48.6299V102.14C35.4 104.35 33.59 106.17 31.38 106.17H4.02C1.81 106.17 0 104.36 0 102.14V48.6299C0 46.4099 1.81 44.5999 4.02 44.5999ZM63.06 4.4599C65.18 -6.2901 82.78 3.6099 83.94 20.9399C84.29 26.2399 83.74 32.4099 82.44 39.2999H107.59C118.05 39.7099 127.18 47.1999 120.73 59.4999C122.2 64.8599 122.42 71.1499 118.43 73.6299C118.93 82.0899 116.59 87.3299 112.21 91.4699C111.92 95.6999 111.02 99.4599 108.98 102.35C105.6 107.12 102.86 105.98 97.54 105.98H55.07C48.34 105.98 44.67 104.13 40.27 98.6099V51.3099C52.93 47.8899 59.66 30.5699 63.06 19.1999V4.4599Z" fill="#FFC40C"/>
</g>
<defs>
<clipPath id="clip0_109_8">
<rect width="122.88" height="106.16" fill="white"/>
</clipPath>
</defs>
</svg>
