<svg width="167" height="167" viewBox="0 0 167 167" fill="none" xmlns="http://www.w3.org/2000/svg">
<g clip-path="url(#clip0_117_2)">
<path d="M0 135.771C0 144.455 3.06167 151.803 9.185 157.815C15.3083 163.827 22.712 166.889 31.396 167H135.771C144.344 167 151.692 163.938 157.815 157.815C163.938 151.692 167 144.344 167 135.771V31.396C167 24.6047 165.052 18.537 161.155 13.193C157.258 7.849 152.248 4.11933 146.125 2.004V15.698C146.125 20.04 144.622 23.7697 141.616 26.887C138.61 30.0043 134.88 31.5073 130.427 31.396C125.974 31.2847 122.3 29.7817 119.405 26.887C116.51 23.9923 115.007 20.2627 114.896 15.698V0H52.271V15.698C52.271 20.04 50.7123 23.7697 47.595 26.887C44.4777 30.0043 40.8037 31.5073 36.573 31.396C32.3423 31.2847 28.6127 29.7817 25.384 26.887C22.1553 23.9923 20.6523 20.2627 20.875 15.698V2.004C14.7517 4.23067 9.74167 7.96033 5.845 13.193C1.94833 18.4257 0 24.4933 0 31.396L0 135.771ZM20.875 135.771V52.271H146.125V135.771C146.125 138.666 145.123 141.115 143.119 143.119C141.115 145.123 138.666 146.125 135.771 146.125H31.396C28.5013 146.125 25.9963 145.123 23.881 143.119C21.7657 141.115 20.7637 138.666 20.875 135.771ZM31.396 15.698C31.396 17.1453 31.897 18.37 32.899 19.372C33.901 20.374 35.1257 20.875 36.573 20.875C38.0203 20.875 39.245 20.374 40.247 19.372C41.249 18.37 41.75 17.1453 41.75 15.698V0H31.396V15.698ZM41.75 125.25H62.625V104.375H41.75V125.25ZM41.75 94.021H62.625V73.146H41.75V94.021ZM73.146 125.25H94.021V104.375H73.146V125.25ZM73.146 94.021H94.021V73.146H73.146V94.021ZM104.375 125.25H125.25V104.375H104.375V125.25ZM104.375 94.021H125.25V73.146H104.375V94.021ZM125.25 15.698C125.25 17.1453 125.751 18.37 126.753 19.372C127.755 20.374 128.98 20.875 130.427 20.875C131.874 20.875 133.099 20.374 134.101 19.372C135.103 18.37 135.66 17.1453 135.771 15.698V0H125.25V15.698Z" fill="#FFC40C"/>
</g>
<defs>
<clipPath id="clip0_117_2">
<rect width="167" height="167" fill="white"/>
</clipPath>
</defs>
</svg>
